<?xml version="1.0" encoding="utf-8"?><svg viewBox="0 0 96 96" xmlns="http://www.w3.org/2000/svg" xmlns:xlink="http://www.w3.org/1999/xlink"><style>:root>svg{display:none}:root>svg:target{display:block}</style><svg fill="none" viewBox="0 0 32 32" id="arrow-down" xmlns="http://www.w3.org/2000/svg"><path d="M10.667 13.333 16 18.667l5.333-5.334" stroke="#FC3232" stroke-width="2" stroke-linecap="round" stroke-linejoin="round"/></svg><svg viewBox="0 0 32 32" id="arrow-down-white" xmlns="http://www.w3.org/2000/svg"><path d="m10.668 14.672 5.333 3.84 5.334-3.84" stroke="currentColor" stroke-width="2.667" stroke-linecap="round" stroke-linejoin="round"/></svg><svg fill="none" viewBox="0 0 32 32" id="check" xmlns="http://www.w3.org/2000/svg"><path d="m5.333 15.412 7.294 7.294L26 9.333" stroke="#EEC63B" stroke-width="4" stroke-linecap="round" stroke-linejoin="round"/></svg><svg fill="none" viewBox="0 0 96 96" id="device-desktop" xmlns="http://www.w3.org/2000/svg"><g opacity=".9"><path d="M43.337 66.792H10.125a5.326 5.326 0 0 1-5.324-5.333V19.326c0-2.946 2.354-5.334 5.3-5.334h70.983a5.319 5.319 0 0 1 5.317 5.334v14.666" stroke="#fff" stroke-width="2.667"/><path d="M27.916 78.025a1.333 1.333 0 1 0 1.058 2.447l-1.058-2.447Zm15.213-3.96c-3.115 0-6.958 1.023-9.923 1.99a71.942 71.942 0 0 0-4.876 1.796 40.6 40.6 0 0 0-.405.17l-.006.002-.002.001.528 1.224.53 1.224.004-.001.017-.008.07-.03.282-.118a69.06 69.06 0 0 1 4.685-1.724c2.933-.957 6.432-1.86 9.096-1.86v-2.666Z" fill="#fff"/><path d="M73.336 79.992h-26.14a4 4 0 0 1-4-4v-46a4 4 0 0 1 4-4h35.2a4 4 0 0 1 4 4v8.667" stroke="#fff" stroke-width="2.667"/><path d="M61.5 70.14h4.2" stroke="#fff" stroke-width="2.667" stroke-linecap="round"/><path d="M71.629 42.703a4 4 0 0 1 4-4h12.907a4 4 0 0 1 4 4v33.8a4 4 0 0 1-4 4H75.629a4 4 0 0 1-4-4v-33.8Z" stroke="#fff" stroke-width="2.667"/><path d="M80.586 72.89h2.987" stroke="#fff" stroke-width="2.667" stroke-linecap="round"/></g></svg><svg viewBox="0 0 24 24" id="fb" xmlns="http://www.w3.org/2000/svg"><path d="M14.085 21.72c4.714-.964 8.26-5.135 8.26-10.134 0-5.713-4.632-10.345-10.345-10.345-5.713 0-10.345 4.632-10.345 10.345 0 4.949 3.475 9.086 8.117 10.104v-7.475H7.448V11.14h2.324V8.512c0-2.064 1.373-3.96 4.536-3.96 1.28 0 2.228.119 2.228.119l-.075 2.872s-.966-.009-2.02-.009c-1.14 0-1.323.511-1.323 1.36v2.245h3.434l-.15 3.076h-3.284v7.656c.327-.035.65-.085.967-.15Z" fill="currentColor"/></svg><svg fill="none" viewBox="0 0 96 96" id="gift" xmlns="http://www.w3.org/2000/svg"><path opacity=".9" d="M78.72 48v33.067a5.333 5.333 0 0 1-5.333 5.333H22.613a5.333 5.333 0 0 1-5.333-5.333V48M48 86.4V28.8m0 0H30.72a9.6 9.6 0 1 1 0-19.2C44.16 9.6 48 28.8 48 28.8Zm0 0h17.28a9.6 9.6 0 1 0 0-19.2C51.84 9.6 48 28.8 48 28.8ZM14.933 48h66.134a5.333 5.333 0 0 0 5.333-5.333v-8.534a5.333 5.333 0 0 0-5.333-5.333H14.933A5.333 5.333 0 0 0 9.6 34.133v8.534A5.333 5.333 0 0 0 14.933 48Z" stroke="#fff" stroke-width="2.667" stroke-linecap="round" stroke-linejoin="round"/></svg><svg fill="none" viewBox="0 0 96 96" id="planet-earth" xmlns="http://www.w3.org/2000/svg"><g opacity=".9"><path d="m50.383 8.088.092-1.33-1.808-.125.418 1.763 1.298-.308Zm34.42 25.894.46 1.252 1.25-.46-.458-1.25-1.252.458ZM50.603 9.02l-1.297.308 1.298-.308Zm.65 1.208-.974.912.973-.912Zm1.41 1.506-.974.912.974-.912Zm.559 2.735 1.253.456-1.253-.456Zm-.573 1.576-1.253-.456 1.253.456Zm1.593 3.418.456-1.253-.456 1.253Zm1.077.392-.456 1.252.456-1.252Zm1.74 2.79-1.326-.142 1.325.143Zm-.525 4.875 1.325.143-1.325-.143Zm.705 2.109-.973.911.973-.911Zm4.18 4.463-.974.911.974-.911Zm2.469.791-.262-1.307.262 1.307Zm9.376-1.874.261 1.307-.261-1.307Zm.918-.022-.198 1.318.198-1.318Zm8.788 1.32.198-1.319-.198 1.319Zm1.316-.135.46 1.252-.46-1.252ZM25.604 80.524l-.742 1.108.714.478.73-.453-.702-1.133Zm3.007-67.689.909-.976-.705-.655-.844.462.64 1.17Zm2.966 2.76.908-.975-.908.976Zm.532.69 1.175-.63-1.175.63Zm1.919 3.572-1.175.63.04.076.05.07 1.085-.776Zm3.755 5.243-1.084.777 1.084-.777Zm.655 7.073-1.255.45 1.255-.45Zm1.245 3.475-1.255.45 1.255-.45Zm-1.105 3.165.703 1.133-.703-1.133Zm-4.33 2.687-.703-1.133.703 1.133Zm-.41.313-.909-.975.908.975Zm-4.065 3.784-.908-.976.908.976Zm-5.207 4.846-.908-.976.908.976Zm-.758 2.644 1.287-.346-1.287.346Zm1.512 5.63-1.288.346 1.288-.345Zm.758 1.26.909-.975-.909.976Zm3.22 2.998.909-.976-.909.975Zm.694 1.052 1.255-.45-1.255.45Zm1.908 5.33-1.255.45 1.255-.45Zm1.401 3.91-1.255.45 1.255-.45Zm-1.105 3.166-.702-1.133.703 1.133ZM45.78 52.828l-.897-.986.897.986Zm4.664-4.24.897.986-.897-.986Zm-5.02 7.79-1.076.79 1.075-.79Zm2.964 4.043-1.075.788 1.075-.788Zm.484 1.99-1.318-.206 1.318.207Zm-.98 6.24 1.316.207-1.317-.207Zm.13 1.332-1.252.459 1.252-.459Zm.085.233 1.252-.46-1.252.46Zm3.472 1.567-.484-1.243.484 1.243Zm5.495-2.141L56.59 68.4l.484 1.242Zm1.257-1.016 1.113.734-1.113-.734Zm3.186-4.827 1.113.735-1.113-.735Zm.285-.36-.97-.915.97.915Zm5.259-5.578-.97-.914.97.914Zm-.438-4.032.751-1.102-.751 1.102Zm-2.46-1.677.752-1.102-.03-.02-.03-.018-.691 1.14Zm-3.41-2.067.692-1.14-.691 1.14Zm-.79-.32.295-1.3-.296 1.3Zm-4.62-1.05-.386 1.277.045.014.046.01.296-1.3Zm-2.331-.706-.387 1.276.387-1.276ZM50.29 9.42C65.627 10.48 78.48 20.584 83.55 34.44l2.504-.917C80.632 18.706 66.888 7.896 50.475 6.758l-.184 2.66Zm-1.206-1.023.221.932 2.595-.615-.22-.932-2.596.615Zm.221.932a4 4 0 0 0 .973 1.812l1.946-1.823a1.333 1.333 0 0 1-.324-.604l-2.595.615Zm.973 1.812 1.41 1.506 1.947-1.823-1.41-1.506-1.947 1.823Zm1.41 1.506c.344.366.452.895.28 1.367l2.506.912a4 4 0 0 0-.84-4.102l-1.946 1.823Zm.28 1.367-.573 1.576 2.505.912.574-1.576-2.506-.912Zm-.573 1.576a4 4 0 0 0 2.39 5.126l.912-2.505a1.333 1.333 0 0 1-.797-1.71l-2.505-.911Zm2.39 5.126 1.077.392.912-2.505-1.077-.392-.912 2.505Zm1.077.392c.577.21.935.786.87 1.396l2.651.285a4 4 0 0 0-2.609-4.186l-.912 2.505Zm.87 1.396-.525 4.875 2.651.285.525-4.875-2.651-.285Zm-.525 4.875a4 4 0 0 0 1.058 3.162l1.946-1.823a1.333 1.333 0 0 1-.353-1.054l-2.651-.285Zm1.058 3.162 4.18 4.463 1.946-1.823-4.18-4.463-1.947 1.823Zm4.18 4.463a4 4 0 0 0 3.703 1.188l-.523-2.615c-.452.09-.919-.06-1.234-.396l-1.947 1.823Zm3.703 1.188 9.376-1.875-.523-2.614-9.376 1.874.523 2.615Zm9.376-1.875c.151-.03.307-.034.46-.01l.395-2.638a3.998 3.998 0 0 0-1.378.034l.523 2.614Zm.46-.01 8.787 1.32.396-2.638-8.788-1.32-.396 2.637Zm8.787 1.32a4 4 0 0 0 1.974-.202l-.92-2.503c-.21.077-.436.1-.658.067l-.396 2.637Zm1.974-.202.517-.19-.92-2.503-.517.19.92 2.503Zm-58.4 43.992C16.085 72.549 9.336 60.858 9.336 47.592H6.671c0 14.194 7.224 26.699 18.191 34.04l1.483-2.216ZM9.336 47.592c0-14.482 8.044-27.087 19.915-33.587l-1.281-2.34c-12.69 6.95-21.3 20.432-21.3 35.927h2.666ZM32.485 14.62l-2.965-2.76-1.817 1.951 2.966 2.76 1.816-1.951Zm.799 1.035a4 4 0 0 0-.799-1.035l-1.816 1.952c.107.1.197.216.266.345l2.349-1.262Zm1.918 3.57-1.918-3.57-2.35 1.262 1.919 3.57 2.35-1.261Zm3.665 5.099-3.755-5.244-2.168 1.553 3.755 5.244 2.168-1.553Zm.748 2.33a4 4 0 0 0-.748-2.33L36.7 25.877c.163.226.25.498.25.776h2.666Zm0 4.62v-4.62H36.95v4.62h2.666Zm.078.449a1.332 1.332 0 0 1-.078-.45H36.95c0 .46.079.916.234 1.35l2.51-.9Zm1.245 3.475-1.245-3.475-2.51.9 1.245 3.474 2.51-.899Zm-1.657 4.748a4 4 0 0 0 1.657-4.748l-2.51.9a1.333 1.333 0 0 1-.553 1.582l1.406 2.266Zm-4.33 2.687 4.33-2.687-1.406-2.266-4.33 2.687 1.406 2.266Zm-.205.156c.063-.058.132-.11.205-.156l-1.406-2.266a4 4 0 0 0-.616.47l1.817 1.952Zm-4.065 3.784 4.065-3.784-1.817-1.951-4.064 3.783 1.816 1.952Zm-5.207 4.846 5.207-4.846-1.816-1.952-5.207 4.846 1.816 1.952Zm-.379 1.322a1.333 1.333 0 0 1 .38-1.322l-1.817-1.952a4 4 0 0 0-1.138 3.966l2.575-.692Zm1.513 5.63-1.513-5.63-2.575.692 1.512 5.63 2.576-.691Zm.379.63a1.333 1.333 0 0 1-.38-.63l-2.575.692a4 4 0 0 0 1.138 1.89l1.817-1.951ZM30.207 62l-3.22-2.997-1.817 1.952 3.22 2.996 1.816-1.952Zm1.04 1.579a3.999 3.999 0 0 0-1.04-1.58l-1.817 1.953c.156.145.275.325.346.526l2.511-.9Zm1.909 5.329-1.909-5.33-2.51.9 1.908 5.33 2.51-.9Zm1.4 3.911-1.4-3.911-2.511.9 1.4 3.91 2.511-.899ZM32.9 77.566a4 4 0 0 0 1.656-4.748l-2.51.9a1.333 1.333 0 0 1-.552 1.582l1.406 2.266Zm-6.593 4.09 6.593-4.09-1.406-2.266-6.593 4.09 1.406 2.267Zm20.37-27.84 4.664-4.242-1.793-1.973-4.665 4.24 1.794 1.974Zm-.178 1.774a1.333 1.333 0 0 1 .178-1.775l-1.794-1.973a4 4 0 0 0-.535 5.325l2.15-1.577Zm2.964 4.042-2.965-4.042-2.15 1.577 2.965 4.042 2.15-1.577Zm.726 2.987a4 4 0 0 0-.726-2.986l-2.15 1.576c.21.287.297.645.241.996l2.635.414Zm-.98 6.239.98-6.24-2.635-.413-.98 6.24 2.634.413Zm.065.666a1.334 1.334 0 0 1-.066-.666l-2.634-.414a3.998 3.998 0 0 0 .196 1.998l2.504-.918Zm.085.233-.085-.233-2.504.918.085.233 2.504-.918Zm1.736.783a1.333 1.333 0 0 1-1.736-.783l-2.504.918a4 4 0 0 0 5.208 2.35l-.968-2.485Zm5.495-2.14-5.495 2.14.968 2.485 5.495-2.14-.968-2.486Zm.628-.508c-.152.23-.371.407-.629.508l.969 2.484a4 4 0 0 0 1.886-1.523l-2.226-1.47Zm3.186-4.827-3.186 4.827 2.226 1.469 3.186-4.827-2.226-1.47Zm.428-.54a3.999 3.999 0 0 0-.428.54l2.226 1.469c.042-.064.09-.125.142-.18l-1.94-1.83Zm5.259-5.578-5.259 5.577 1.94 1.83 5.259-5.578-1.94-1.83Zm-.22-2.017c.678.462.782 1.42.22 2.017l1.94 1.83a4 4 0 0 0-.657-6.05l-1.502 2.203Zm-2.458-1.676 2.459 1.676 1.502-2.203-2.459-1.676-1.502 2.203Zm-3.35-2.029 3.41 2.067 1.382-2.28-3.41-2.067-1.383 2.28Zm-.396-.16c.14.032.273.086.395.16l1.383-2.28a3.999 3.999 0 0 0-1.187-.48l-.591 2.6Zm-4.619-1.049 4.619 1.05.59-2.6-4.618-1.05-.59 2.6Zm-2.423-.73 2.332.706.774-2.552-2.333-.707-.773 2.552Zm-1.284.288a1.333 1.333 0 0 1 1.284-.289l.773-2.552a4 4 0 0 0-3.85.868l1.793 1.974Z" fill="#fff"/><circle cx="47.604" cy="47.592" r="39.6" stroke="#fff" stroke-width="2.667"/></g></svg><svg viewBox="0 0 24 24" id="telegram" xmlns="http://www.w3.org/2000/svg"><path fill-rule="evenodd" clip-rule="evenodd" d="M22.345 11.586c0 5.713-4.632 10.345-10.345 10.345-5.713 0-10.345-4.632-10.345-10.345C1.655 5.873 6.287 1.241 12 1.241c5.713 0 10.345 4.632 10.345 10.345ZM12.37 8.878a485.158 485.158 0 0 0-6.033 2.599c-.49.194-.747.385-.77.571-.04.316.355.44.891.608.074.023.15.046.227.072.529.172 1.239.373 1.608.38.335.008.71-.13 1.122-.413 2.818-1.903 4.272-2.864 4.363-2.885.065-.014.155-.033.215.021.06.053.054.155.048.183-.04.166-1.586 1.605-2.388 2.35-.25.232-.426.396-.463.434-.08.084-.163.164-.243.24-.491.473-.858.828.02 1.408.423.278.761.508 1.098.738.368.25.736.5 1.212.813.12.079.236.16.349.24.428.307.813.581 1.29.538.275-.026.561-.285.706-1.06.343-1.833 1.017-5.802 1.173-7.438.01-.136.003-.273-.018-.407a.436.436 0 0 0-.148-.28c-.123-.101-.314-.123-.4-.121-.39.007-.986.215-3.86 1.41Z" fill="currentColor"/></svg><svg fill="none" viewBox="0 0 96 96" id="tv" xmlns="http://www.w3.org/2000/svg"><g opacity=".9" stroke="#fff" stroke-width="2.667" stroke-linecap="round" stroke-linejoin="round"><path d="m68.004 7.992-20 20-20-20m-12 20h64a8 8 0 0 1 8 8v44a8 8 0 0 1-8 8h-64a8 8 0 0 1-8-8v-44a8 8 0 0 1 8-8ZM29.172 44.031h38.886M29.172 58.328h38.886M29.172 72.594h38.886"/></g></svg><svg fill="none" viewBox="0 0 51 64" id="tv-channels" xmlns="http://www.w3.org/2000/svg"><path d="M18.405.877a2.64 2.64 0 0 1 4.605 1.805c0 3.372 0 7.537-.12 9.917a1.983 1.983 0 0 0 1.985 1.983l5.776.1a2.7 2.7 0 0 1 2.56 3.966C22.752 37.313 21.74 39.712 15.727 50.383a2.699 2.699 0 0 1-5.022-1.428c0-3.967-.139-8.191-.238-9.917a1.507 1.507 0 0 0-.754-1.309 4.508 4.508 0 0 0-1.806-.575c-1.529-.12-3.513.178-5.34 0-2.242 0-3.115-2.52-1.825-4.641.734-1.369 13.1-24.456 17.664-31.636Z" fill="url(#ia)"/><path d="M18.405.877a2.64 2.64 0 0 1 4.605 1.805c0 3.372 0 7.537-.12 9.917a1.983 1.983 0 0 0 1.985 1.983l5.776.1a2.7 2.7 0 0 1 2.56 3.966C22.752 37.313 21.74 39.712 15.727 50.383a2.699 2.699 0 0 1-5.022-1.428c0-3.967-.139-8.191-.238-9.917a1.507 1.507 0 0 0-.754-1.309 4.508 4.508 0 0 0-1.806-.575c-1.529-.12-3.513.178-5.34 0-2.242 0-3.115-2.52-1.825-4.641.734-1.369 13.1-24.456 17.664-31.636Z" fill="url(#ib)"/><path fill-rule="evenodd" clip-rule="evenodd" d="M33.17 18.672a2.696 2.696 0 0 0-2.56-3.967l-5.776-.1a1.985 1.985 0 0 1-1.985-1.983c0-2.42.12-6.585.12-9.917a2.637 2.637 0 0 0-3.25-2.61A2.64 2.64 0 0 0 18.364.9C14.97 6.236 7.229 20.417 3.16 27.875 1.771 30.434.818 32.199.6 32.555c-1.29 2.123-.417 4.543 1.826 4.642.919.05 1.84.05 2.759 0 .859-.059 1.72-.059 2.58 0a4.506 4.506 0 0 1 1.806.575 1.507 1.507 0 0 1 .754 1.31c0 1.784.298 6.088.239 9.916a2.696 2.696 0 0 0 1.918 2.849 2.7 2.7 0 0 0 3.163-1.341 542.65 542.65 0 0 0 5.954-10.89c2.6-4.74 5.478-10.095 11.571-20.944Zm-2.52-1.15-5.796-.1a4.726 4.726 0 0 1-4.315-2.987 4.718 4.718 0 0 1-.33-1.813c0-2.28.1-6.148.1-9.401-2.303 3.768-6.153 10.631-9.646 16.978l-4.784 8.747c-1.468 2.697-2.5 4.621-2.738 4.998a1.31 1.31 0 0 0-.199.516h2.263c.951-.06 1.906-.06 2.858 0a7.426 7.426 0 0 1 2.937.912 4.246 4.246 0 0 1 2.184 3.57c.099 1.786.277 6.11.218 10.056 2.421-4.323 3.97-7.298 5.815-10.591l1.092-1.983c2.302-4.443 5.14-9.6 10.34-18.903Z" fill="url(#ic)"/><path d="M47.838 36.74c1.31-.576 2.957 1.289 1.984 2.836-.972 1.547-2.6 3.67-3.572 5.097a1.982 1.982 0 0 0 .476 2.718l2.779 1.983a1.865 1.865 0 0 1 0 3.233c-13.1 6.545-14.588 7.537-22.09 11.306a1.986 1.986 0 0 1-2.564-1.72c-.035-.395.05-.79.241-1.137 1.41-1.983 2.838-4.383 3.533-5.553a1.387 1.387 0 0 0 0-1.488c-.172-.31-.4-.587-.675-.813-.833-.654-1.985-1.27-3.076-1.983-1.092-.714-.814-2.658.734-3.372.973-.536 16.851-8.886 22.23-11.107Z" fill="url(#id)"/><path d="M47.838 36.74c1.31-.576 2.957 1.289 1.984 2.836-.972 1.547-2.6 3.67-3.572 5.097a1.982 1.982 0 0 0 .476 2.718l2.779 1.983a1.865 1.865 0 0 1 0 3.233c-13.1 6.545-14.588 7.537-22.09 11.306a1.986 1.986 0 0 1-2.564-1.72c-.035-.395.05-.79.241-1.137 1.41-1.983 2.838-4.383 3.533-5.553a1.387 1.387 0 0 0 0-1.488c-.172-.31-.4-.587-.675-.813-.833-.654-1.985-1.27-3.076-1.983-1.092-.714-.814-2.658.734-3.372.973-.536 16.851-8.886 22.23-11.107Z" fill="url(#ie)"/><path fill-rule="evenodd" clip-rule="evenodd" d="M49.464 52.607a1.865 1.865 0 0 0 0-3.233l-2.779-1.983a1.983 1.983 0 0 1-.437-2.718 268.015 268.015 0 0 0 3.514-5.137c1.13-1.706-.616-3.411-1.985-2.836-3.97 1.725-13.775 6.783-18.935 9.44l-3.255 1.667c-1.548.714-1.985 2.44-.734 3.372.496.377 1.051.714 1.587 1.051.514.297 1.011.62 1.489.972.274.226.503.502.675.813a1.388 1.388 0 0 1 0 1.488c-.695 1.17-2.124 3.51-3.533 5.553a1.982 1.982 0 0 0 1.16 2.86c.38.114.784.113 1.162-.003 3.136-1.587 5.22-2.678 7.562-3.967 3.196-1.647 6.887-3.57 14.509-7.34Zm-14.27 4.562c2.837-1.488 6.31-3.273 12.364-6.307l-2.222-1.587a4.324 4.324 0 0 1-1.052-5.95l2.381-3.472c-2.798 1.33-6.748 3.313-10.44 5.197l-5.954 3.094-3.176 1.627.715.436c.581.338 1.138.716 1.667 1.13.5.397.924.88 1.25 1.429a3.766 3.766 0 0 1 0 3.967c-.535.892-1.528 2.518-2.62 4.184l5.776-2.995 1.31-.753Z" fill="url(#if)"/><defs><linearGradient id="ia" x1="28.567" y1="6.272" x2="8.858" y2="39.447" gradientUnits="userSpaceOnUse"><stop stop-color="#FFFD54"/><stop offset="1" stop-color="#FFBC00"/></linearGradient><linearGradient id="ib" x1="-2.792" y1="18.331" x2="21.12" y2="27.664" gradientUnits="userSpaceOnUse"><stop stop-color="#fff"/><stop offset="1" stop-color="#fff" stop-opacity="0"/></linearGradient><linearGradient id="ic" x1="7.328" y1="37.237" x2="22.996" y2="18.582" gradientUnits="userSpaceOnUse"><stop stop-color="#F5BE41" stop-opacity=".8"/><stop offset=".56" stop-color="#F8D147" stop-opacity=".56"/><stop offset="1" stop-color="#FFFD54" stop-opacity="0"/></linearGradient><linearGradient id="id" x1="2426.27" y1="1911.08" x2="2106.04" y2="1766.96" gradientUnits="userSpaceOnUse"><stop stop-color="#FFFD54"/><stop offset="1" stop-color="#FFBC00"/></linearGradient><linearGradient id="ie" x1="2122.57" y1="2001.94" x2="2272.72" y2="1784.51" gradientUnits="userSpaceOnUse"><stop stop-color="#fff"/><stop offset="1" stop-color="#fff" stop-opacity="0"/></linearGradient><linearGradient id="if" x1="26.778" y1="53.142" x2="38.646" y2="50.005" gradientUnits="userSpaceOnUse"><stop stop-color="#F5BE41" stop-opacity=".8"/><stop offset="1" stop-color="#FFFD54" stop-opacity="0"/></linearGradient></defs></svg></svg>